<svg xmlns="http://www.w3.org/2000/svg" width="722" height="722" overflow="hidden"><defs><clipPath id="a"><path d="M279-1h722v722H279z"/></clipPath></defs><g fill-rule="evenodd" clip-path="url(#a)" transform="translate(-279 1)"><path fill="#CFA547" d="M640 0C441.204 0 280 161.21 280 360.014 280 558.846 441.204 720 640 720c198.824 0 360-161.182 360-359.986S838.852 0 640 0Z"/><path fill="#580009" d="M639.986 706C448.941 706 294 551.097 294 360c.028-191.097 154.941-346 345.986-346C831.088 14 986 168.903 986 360c.028 191.097-154.912 346-346.014 346Z"/><path fill="#CFA547" d="M928.199 265.294c-7.318-22.206-27.097-37.943-50.465-40.259-4.38-20.031-19.356-30.485-23.905-33.197-16.841-10.934-35.235-8.561-39.418-7.798-2.486-3.079-10.793-11.922-24.639-13.504-4.295-.452-9.014.056-13.535 1.553-.254.085-.508.17-.734.255v-.678c0-4.775-.904-9.408-2.713-13.335-5.764-12.686-16.784-17.856-20.401-19.297-.621-4.153-4.04-22.432-19.695-35.09-3.955-3.446-18.479-14.437-38.908-12.402-9.466-21.5-30.545-35.457-53.857-35.542-23.339.085-44.447 14.041-53.884 35.542-20.401-2.006-34.981 8.956-38.937 12.431-15.626 12.629-19.045 30.908-19.638 35.061-3.645 1.441-14.665 6.611-20.43 19.297-1.78 3.927-2.712 8.56-2.712 13.335 0 .254 0 .536.028.763-.198-.057-.424-.114-.622-.198-4.549-1.469-9.239-2.034-13.534-1.554-13.902 1.554-22.181 10.425-24.696 13.476-4.126-.734-22.549-3.107-39.446 7.854-4.493 2.713-19.44 13.138-23.848 33.141-23.34 2.373-43.119 18.109-50.409 40.259-7.121 22.207-.396 46.589 17.123 62.212-8.223 18.817-2.232 36.022-.198 40.882 7.206 18.731 23.509 27.659 27.296 29.495.226 3.956 1.723 16.02 12.037 25.399 3.221 2.91 7.318 5.227 11.867 6.696.227.057.481.141.735.226-.141.17-.254.367-.395.537-2.826 3.871-4.776 8.165-5.68 12.403-2.797 13.674 3.08 24.297 5.199 27.602-1.978 3.73-9.946 20.484-4.719 39.95 1.187 5.113 6.471 22.545 24.159 32.914-4.973 22.969 3.9 46.616 22.718 60.403 18.932 13.618 44.193 14.748 64.481 2.91 15.343 13.618 33.569 13.279 38.824 12.799 20.062-1.017 33.569-13.787 36.507-16.81 3.787 1.017 15.739 3.277 27.861-3.588 3.758-2.148 7.233-5.34 10.059-9.211.113-.197.283-.452.424-.65.141.198.254.396.396.565 2.797 3.871 6.272 7.064 10.03 9.211 12.122 6.893 24.046 4.633 27.861 3.588 2.939 3.051 16.417 15.765 36.564 16.838 5.199.424 23.424.791 38.767-12.798 20.26 11.838 45.549 10.708 64.453-2.938 18.818-13.787 27.691-37.435 22.718-60.432 17.688-10.369 23-27.829 24.187-32.971 5.199-19.381-2.769-36.163-4.747-39.892 2.176-3.278 8.025-13.929 5.227-27.603-.876-4.238-2.854-8.532-5.679-12.403-.113-.198-.311-.424-.452-.593.197-.057.452-.142.649-.198 4.55-1.469 8.647-3.786 11.868-6.724 10.314-9.38 11.811-21.444 12.037-25.371 3.787-1.865 20.091-10.736 27.324-29.552 2.063-4.859 8.025-22.065-.226-40.853 17.519-15.596 24.244-39.949 17.123-62.156Z"/><path fill="#FFF" d="M640 495c-74.534 0-135-60.213-135-134.5S565.437 226 640 226s135 60.185 135 134.5c0 74.287-60.409 134.5-135 134.5Z"/><path fill="#A86913" d="M654.541 209c9.177-45.757 19.595-97.761 21.459-107.031-2.372-15.686-18.071-28.771-36.056-28.969-17.676.198-33.375 13.057-35.944 28.771 1.977 9.836 12.367 61.641 21.515 107.201 4.772-.452 9.6-.707 14.485-.707 4.885.057 9.741.311 14.541.735ZM592.97 110.912c-3.516-1.209-7.202-1.912-10.943-1.912-9.509 0-18.173 3.516-24.419 9.843-5.232 5.288-8.214 12.234-8.608 19.687 6.47 10.772 27.597 46.04 45.827 76.47A156.872 156.872 0 0 1 613 210.585a97705.311 97705.311 0 0 1-20.03-99.673ZM731 138.538c-.366-7.455-3.349-14.403-8.584-19.692-6.276-6.33-14.944-9.846-24.429-9.846-3.771 0-7.43.703-10.948 1.913-2.955 14.741-12.384 61.608-20.039 99.67 6.192 1.126 12.271 2.56 18.181 4.417 18.238-30.41 39.374-65.687 45.819-76.462ZM555.502 234A150.098 150.098 0 0 1 582 219.847c-19.158-32.085-37.381-62.664-39.279-65.847h-.51C531.045 154 519 165.51 519 176.679c0 4.177 1.332 8.27 4.024 12.163L555.502 234ZM724.486 234A149.992 149.992 0 0 0 698 219.847c19.149-32.085 37.364-62.664 39.262-65.847h.538c11.161 0 23.2 11.51 23.2 22.679 0 4.177-1.36 8.27-3.994 12.163L724.486 234ZM501 299.576c-40.832-22.731-87.194-48.581-95.474-53.189-15.709-2.613-33.035 8.261-38.819 25.232-5.274 16.746 2.098 35.572 16.276 42.821 10.01 1.152 62.638 7.221 109 12.56a158.293 158.293 0 0 1 3.8-13.908A172.942 172.942 0 0 1 501 299.576ZM388.011 328c-2.251 3.02-4.023 6.354-5.204 9.944-2.926 9.145-2.279 18.605 1.8 26.611 3.432 6.695 9.086 11.767 16.063 14.445a44945.952 44945.952 0 0 0 86.924-20.172c.084-6.268.534-12.565 1.406-18.862-38.567-4.615-86.052-10.2-100.989-11.966ZM457.067 205.081c-7.243-1.964-14.797-1.235-21.503 2.048-8.006 4.041-14.033 11.169-16.975 20.148-1.16 3.592-1.641 7.268-1.585 11 13.185 7.352 55.114 30.726 89.122 49.723A151.73 151.73 0 0 1 516 272.09c-23.454-26.658-50.615-57.581-58.933-67.009ZM494 401.207c-2.696-9.484-4.484-19.248-5.251-29.207-36.414 8.225-71.098 16.03-74.702 16.87-.114.279-.17.475-.17.475-3.463 10.491 3.746 25.318 14.361 28.731 3.974 1.259 8.259 1.231 12.801-.084L494 401.207ZM546 241.19c-7.855 6.144-15.086 13.109-21.637 20.81A49327.856 49327.856 0 0 0 474 204.411c.085-.283.142-.51.142-.51 3.459-10.618 18.12-18.517 28.726-15.091 3.97 1.274 7.43 3.822 10.294 7.56L546 241.19ZM788.02 327c46.517-5.36 99.387-11.45 108.804-12.572 14.239-7.016 21.84-25.902 16.423-42.964-5.673-16.613-22.805-27.501-38.604-25.144-8.764 4.883-54.969 30.588-95.643 53.207 1.9 4.377 3.659 8.868 5.162 13.498 1.532 4.658 2.78 9.289 3.858 13.975ZM862.996 238.296c.056-3.733-.425-7.41-1.584-11.002-2.942-8.981-8.995-16.138-16.999-20.123-6.704-3.34-14.256-4.041-21.468-2.105-8.316 9.458-35.497 40.387-58.945 67.049 3.62 5.024 6.901 10.356 9.871 15.885 34.027-18.972 75.916-42.351 89.125-49.704ZM879.138 379c7.041-2.678 12.747-7.721 16.21-14.445 4.116-8.006 4.798-17.437 1.817-26.583-1.193-3.618-2.981-6.923-5.252-9.972-15.074 1.766-62.993 7.379-101.913 11.909.852 6.326 1.363 12.651 1.419 18.919 34.946 8.035 75.371 17.351 87.719 20.172ZM734 241.164A150.375 150.375 0 0 1 755.645 262c24.511-28.083 47.915-54.807 50.355-57.61a3.714 3.714 0 0 0-.142-.51c-3.461-10.587-18.127-18.514-28.709-15.06-3.972 1.273-7.433 3.85-10.326 7.558L734 241.164ZM786 401.207A146.676 146.676 0 0 0 791.249 372c36.402 8.205 71.073 16.046 74.704 16.858.086.28.171.476.171.476 3.461 10.473-3.745 25.315-14.357 28.731-3.943 1.26-8.256 1.26-12.767-.084l-53-16.774ZM539.515 474a77479.053 77479.053 0 0 1-80.192 73.604c-7.31 14.034-2.258 33.75 12.194 44.409 14.396 10.182 34.634 9.029 45.925-2.109 4.178-9.056 26.166-56.869 45.558-98.916-4.121-2.419-8.157-5.063-12.137-7.904A155.267 155.267 0 0 1 539.515 474ZM532 590.087c2.147 3.089 4.717 5.837 7.797 8.048 7.711 5.582 16.808 7.906 25.649 6.432 7.373-1.218 13.87-5.101 18.616-10.938 1.102-12.61 4.774-53.868 7.938-89.46A146.583 146.583 0 0 1 574.627 497c-16.299 35.563-36.328 79.344-42.627 93.087ZM435.953 485.885c-4.075 6.264-5.733 13.595-4.609 20.954 1.349 8.791 6.324 16.712 13.969 22.274 3.036 2.191 6.409 3.792 9.978 4.887 11.046-10.196 46.18-42.525 74.709-68.759-4.357-4.523-8.404-9.269-12.086-14.241-32.633 13.875-70.437 29.998-81.961 34.885ZM634 512.177c-10.067-.423-20.164-1.778-30.088-4.177-3.355 36.999-6.568 72.249-6.912 75.89.229.197.43.338.43.338 9.121 6.52 25.843 4.346 32.468-4.656 2.496-3.331 3.815-7.423 3.93-12.108l.172-55.287ZM497.791 413A149.401 149.401 0 0 0 511 439.985 56850.196 56850.196 0 0 0 440.469 470a5.274 5.274 0 0 1-.455-.34c-9.033-6.541-12.044-22.907-5.482-31.912 2.471-3.369 5.937-5.89 10.396-7.419L497.791 413ZM717 490.988c19.451 42.219 41.528 90.175 45.48 98.725 11.123 11.279 31.506 12.601 46.158 2.222 14.143-10.491 19.31-30.067 12.167-44.187-7.368-6.778-46.186-42.387-80.345-73.748-3.585 3.15-7.34 6.188-11.292 9.029A152.669 152.669 0 0 1 717 490.988ZM824.7 534c3.571-1.095 6.944-2.667 9.98-4.886 7.676-5.587 12.652-13.477 13.973-22.266 1.125-7.356-.506-14.685-4.61-20.946-11.527-4.914-49.341-21.003-81.982-34.902-3.683 4.97-7.731 9.715-12.061 14.236 28.508 26.281 63.679 58.6 74.7 68.764ZM695.97 593.608c4.72 5.866 11.22 9.749 18.596 10.968 8.846 1.445 17.946-.822 25.662-6.462a33.328 33.328 0 0 0 7.772-8.048c-6.302-13.745-26.312-57.5-42.591-93.066-5.709 2.749-11.502 5.158-17.409 7.17 3.165 35.594 6.839 76.856 7.97 89.438ZM782.174 413c-3.464 9.321-7.865 18.415-13.174 26.999 34.354 14.59 67.118 28.556 70.525 30.001.255-.17.426-.34.426-.34 9.057-6.516 12.095-22.919 5.508-31.928-2.442-3.343-5.934-5.836-10.392-7.422L782.174 413ZM646 512.177A157.895 157.895 0 0 0 676.093 508c3.325 36.999 6.592 72.249 6.907 75.918-.229.169-.401.31-.401.31-9.143 6.52-25.852 4.347-32.443-4.656-2.465-3.331-3.783-7.423-3.927-12.108L646 512.177Z"/><path fill="#CFA547" d="M533.665 429.418h119.879v22.697H552.531l-2.33-2.12a126.618 126.618 0 0 1-15.369-18.654Zm31.396-87.396v39.124h48.148v-39.124Zm-29.07-24.566h105.38v89.166h-105.38ZM642.629 235l9.418.476c4.231.43 8.4 1.07 12.496 1.909l2.991.77.177 2.049c.713 8.257 3.414 27.529 4.075 26.901l21.132-20.087 6.249 3.014a125.686 125.686 0 0 1 10.377 6.312l2.661 1.992-11.91 11.725 26.1.056 1.773 1.614a126.64 126.64 0 0 1 15.367 18.652l1.831 3.02h-66.811c-.975 0 7.23 22.825 12.035 34.283 4.64 11.065 17.028 35.568 17.939 35.482.396-.037 3.136-3.157 6.088-6.932 6.477-8.284 22.75-24.757 31.41-31.797 1.845-1.5 3.936-3.035 6.035-4.483l4.894-3.184 2.413 6.604a125.442 125.442 0 0 1 3.101 12.081l.53 3.481-4.161 2.927c-7.346 5.168-18.87 15.652-25.648 23.335-7.143 8.096-13.272 16.102-13.25 17.307.026 1.406 15.353 23.102 21.429 30.87 3.038 3.883 5.372 6.546 6.876 8.345l.632.818-5.336 8.801a126.36 126.36 0 0 1-7.243 9.703l-3.483 3.838-1.452-1.632c-5.23-5.875-16.572-20.945-21.716-28.853-2.342-3.6-4.533-6.542-4.87-6.537-.904.011-8.214 16.43-12.66 28.431-3.818 10.307-6.993 21.05-9.81 33.277l-2.207 10.398-3.487 1.278a125.105 125.105 0 0 1-12.063 3.106l-4.257.65.361-3.09c2.999-25.693 12.04-54.984 24.966-80.888l6.978-13.982-9.613-19.198c-10.574-21.117-16.422-34.645-25.328-58.588l-5.896-15.851H533l1.825-3.008a126.599 126.599 0 0 1 15.366-18.654l.607-.552h94.462l-.742-10.228-1.421-19.546Z"/></g></svg>